<svg width="1520" height="1246" xmlns="http://www.w3.org/2000/svg" xmlns:xlink="http://www.w3.org/1999/xlink" xml:space="preserve" overflow="hidden"><g transform="translate(-516 -1068)"><path d="M1168.58 1368.49C1169.75 1376.58 1170.92 1384.66 1165.08 1391.32 1159.24 1397.99 1146.39 1403.24 1133.54 1408.49" stroke="#000000" stroke-width="7.34091" stroke-linecap="square" stroke-miterlimit="8" stroke-dasharray="22.0227 7.34091" fill="none" fill-rule="evenodd"/><path d="M885.217 1302.23 1346.58 1385.23 1344.15 1398.77 882.783 1315.77ZM1342.25 1370.48 1379.2 1398.09 1334.95 1411.08Z" fill="#999999"/><path d="M903.295 1304.25 1050.19 1332.42 1047.6 1345.92 900.705 1317.75ZM1046.03 1317.62 1082.66 1345.65 1038.26 1358.13Z" fill="#666666"/><path d="M684.5 2209.5 1117.6 1572.5 2028.5 1572.5 1595.4 2209.5Z" stroke="#000000" stroke-width="6.875" stroke-miterlimit="8" stroke-dasharray="27.5 20.625" fill="#F2F2F2" fill-rule="evenodd"/><path d="M3.43748-0.0125916 5.85705 660.525-1.01791 660.55-3.43748 0.0125916ZM16.1527 655.903 2.50351 683.453-11.3471 656.004Z" transform="matrix(1 0 0 -1 896.5 1894.95)"/><path d="M897.028 1311C897.028 1311 1244.03 1451.03 1244.03 1451.03 1231.29 1592.96 1218.54 1734.9 1160.92 1808.23 1103.3 1881.56 1000.79 1886.28 898.286 1891 898.286 1891 897.028 1311 897.028 1311Z" stroke="#0000FF" stroke-width="8.02083" stroke-miterlimit="8" fill="#CBCBFF" fill-rule="evenodd"/><path d="M1623.78 1829.23C1624.71 1829.23 1625.53 1829.33 1626.23 1829.54 1626.94 1829.75 1627.56 1830.07 1628.1 1830.51 1628.64 1830.94 1629.12 1831.5 1629.53 1832.19 1629.95 1832.88 1630.36 1833.82 1630.75 1835 1631.14 1836.18 1631.5 1837.65 1631.85 1839.4 1632.19 1841.15 1632.5 1842.97 1632.77 1844.86L1633.22 1844.86C1636.09 1840.82 1638.27 1837.86 1639.75 1835.99 1641.24 1834.11 1642.49 1832.72 1643.51 1831.81 1644.52 1830.9 1645.5 1830.25 1646.45 1829.88 1647.39 1829.5 1648.64 1829.32 1650.2 1829.32 1651.61 1829.32 1652.76 1829.5 1653.66 1829.85L1651.86 1837.99 1648.72 1837.99C1648.54 1836.73 1648.01 1836.1 1647.14 1836.1 1646.87 1836.1 1646.59 1836.14 1646.29 1836.23 1645.99 1836.32 1645.62 1836.52 1645.19 1836.82 1644.76 1837.12 1644.12 1837.7 1643.28 1838.57 1642.44 1839.44 1641.5 1840.5 1640.45 1841.76 1639.4 1843.02 1638.32 1844.33 1637.22 1845.71L1634.16 1849.53C1634.7 1852.41 1635.21 1854.89 1635.69 1856.99 1636.17 1859.08 1636.59 1860.83 1636.97 1862.22 1637.34 1863.61 1637.67 1864.71 1637.96 1865.52 1638.24 1866.33 1638.55 1866.94 1638.88 1867.34 1639.21 1867.75 1639.54 1868.03 1639.89 1868.2 1640.23 1868.36 1640.63 1868.44 1641.08 1868.44 1641.89 1868.44 1642.67 1868.13 1643.44 1867.5 1644.2 1866.87 1645.3 1865.45 1646.74 1863.23L1649.66 1865.16C1647.56 1868.28 1645.67 1870.47 1643.98 1871.74 1642.29 1873.02 1640.27 1873.65 1637.94 1873.65 1636.65 1873.65 1635.55 1873.42 1634.66 1872.96 1633.76 1872.49 1632.98 1871.75 1632.32 1870.73 1631.66 1869.72 1631.08 1868.13 1630.57 1865.97 1629.64 1862.14 1629.07 1859.2 1628.86 1857.17L1628.41 1857.17C1625.24 1861.63 1622.88 1864.83 1621.34 1866.78 1619.79 1868.73 1618.52 1870.16 1617.52 1871.09 1616.51 1872.02 1615.54 1872.67 1614.6 1873.05 1613.65 1873.42 1612.4 1873.61 1610.85 1873.61 1609.44 1873.61 1608.29 1873.43 1607.39 1873.07L1609.19 1864.94 1612.33 1864.94C1612.51 1866.2 1613.03 1866.83 1613.9 1866.83 1614.32 1866.83 1614.76 1866.71 1615.23 1866.49 1615.69 1866.26 1616.36 1865.72 1617.23 1864.87 1618.09 1864.02 1619.29 1862.68 1620.82 1860.85 1622.35 1859.02 1624.56 1856.28 1627.47 1852.63 1627.02 1850.26 1626.55 1847.99 1626.08 1845.8 1625.6 1843.62 1625.1 1841.58 1624.59 1839.69 1624.08 1837.81 1623.66 1836.57 1623.34 1835.99 1623.01 1835.4 1622.65 1835 1622.28 1834.77 1621.91 1834.55 1621.43 1834.44 1620.86 1834.44 1620.24 1834.44 1619.67 1834.58 1619.16 1834.86 1618.65 1835.15 1618.09 1835.64 1617.5 1836.35 1616.9 1837.05 1616.1 1838.15 1615.11 1839.65L1612.19 1837.72C1614.08 1834.87 1615.89 1832.74 1617.63 1831.34 1619.37 1829.93 1621.42 1829.23 1623.78 1829.23Z" fill-rule="evenodd"/><text fill="#000000" fill-opacity="0" font-family="Arial,Arial_MSFontService,sans-serif" font-size="44.4277" x="1607.39" y="1868.1">π‘¥</text><path d="M561.473 2249.43 593.413 2249.43 594.266 2251.68 572.838 2276.29C568.676 2281.05 565.067 2285.1 562.012 2288.42L562.282 2288.74 572.434 2288.74C574.231 2288.74 575.609 2288.64 576.567 2288.44 577.525 2288.25 578.364 2287.88 579.082 2287.34 579.801 2286.8 580.542 2285.99 581.306 2284.9 582.07 2283.8 583.021 2282.09 584.159 2279.75L588.157 2279.75 585.416 2292.38 552.893 2292.38 552.039 2290.17 576.612 2261.87C580.086 2257.89 582.631 2255.06 584.248 2253.38L583.979 2253.07 573.467 2253.07C571.91 2253.07 570.772 2253.17 570.053 2253.38 569.334 2253.59 568.616 2253.96 567.897 2254.48 567.178 2255.01 566.407 2255.79 565.583 2256.82 564.76 2257.85 563.839 2259.33 562.821 2261.24L558.823 2261.24Z" fill-rule="evenodd"/><text fill="#000000" fill-opacity="0" font-family="Arial,Arial_MSFontService,sans-serif" font-size="42.9453" x="552.039" y="2287.01">π‘§</text><path d="M883.116 1129.49C884.344 1129.49 885.392 1129.65 886.26 1129.98 886.859 1130.22 887.458 1130.62 888.057 1131.17 888.656 1131.73 889.188 1132.5 889.652 1133.49 890.116 1134.48 890.521 1135.58 890.865 1136.81 891.209 1138.04 891.591 1139.81 892.01 1142.11 892.729 1145.98 893.425 1150.04 894.099 1154.31 894.773 1158.58 895.35 1162.54 895.829 1166.19 898.734 1162 901.197 1157.89 903.218 1153.88 905.24 1149.87 906.692 1146.38 907.576 1143.41 908.459 1140.45 908.901 1138.04 908.901 1136.18 908.901 1134.77 908.602 1133.82 908.003 1133.31 907.404 1132.8 906.385 1132.5 904.948 1132.41L905.397 1130.21 917.212 1130.21 918.424 1132.45C916.148 1138.68 913.064 1145.35 909.171 1152.44 905.337 1159.39 900.95 1166.31 896.008 1173.2 891.277 1179.76 887.339 1184.5 884.194 1187.44 882.008 1189.44 879.896 1190.88 877.86 1191.75 876.243 1192.41 874.521 1192.74 872.694 1192.74 872.065 1192.74 871.339 1192.69 870.515 1192.58 869.692 1192.48 869.055 1192.33 868.606 1192.15L870.538 1183.44 874.087 1183.44C874.087 1185.36 874.745 1186.31 876.063 1186.31 877.8 1186.31 879.822 1185.23 882.128 1183.06 884.434 1180.89 887.144 1177.62 890.258 1173.24 889.39 1168 888.207 1161.68 886.71 1154.29 885.122 1146.38 884.074 1141.48 883.565 1139.6 882.936 1137.32 882.277 1135.87 881.589 1135.24 881.169 1134.85 880.645 1134.65 880.016 1134.65 879.058 1134.65 878.16 1135.04 877.321 1135.82 876.482 1136.6 875.449 1137.95 874.221 1139.87L871.301 1137.93C873.368 1134.85 875.299 1132.67 877.096 1131.4 878.893 1130.13 880.9 1129.49 883.116 1129.49Z" fill-rule="evenodd"/><text fill="#000000" fill-opacity="0" font-family="Arial,Arial_MSFontService,sans-serif" font-size="63.25" x="868.606" y="1184.83">π‘¦</text><path d="M2.84232-1.93329 257.433 372.365 251.748 376.232-2.84232 1.93329ZM263.382 362.775 267.479 393.247 240.643 378.241Z" transform="matrix(-1 0 0 1 900.979 1891.5)"/><path d="M934.692 2033.9 958.928 2033.9 957.185 2041.44 944.621 2041.44 940.082 2060.81C939.569 2063 939.312 2064.76 939.312 2066.08 939.312 2067.13 939.488 2067.86 939.839 2068.27 940.19 2068.67 940.69 2068.88 941.339 2068.88 942.257 2068.88 943.23 2068.48 944.257 2067.68 945.283 2066.88 946.607 2065.54 948.228 2063.65L951.146 2066.57C948.85 2069.27 946.526 2071.31 944.176 2072.69 941.825 2074.06 939.258 2074.75 936.475 2074.75 933.693 2074.75 931.653 2074.05 930.356 2072.65 929.059 2071.24 928.41 2069.12 928.41 2066.28 928.41 2064.69 928.708 2062.57 929.302 2059.92L929.586 2058.7C930.153 2056.3 930.903 2053.45 931.835 2050.15 932.767 2046.86 933.652 2044.06 934.49 2041.76L934.287 2041.44 931.409 2041.44C930.005 2041.44 928.849 2041.56 927.944 2041.8 927.039 2042.05 926.154 2042.47 925.29 2043.06 924.425 2043.66 923.345 2044.64 922.048 2046.02L918.643 2042.98C920.886 2040.28 922.73 2038.32 924.175 2037.1 925.621 2035.89 927.1 2035.05 928.613 2034.59 930.126 2034.13 932.152 2033.9 934.692 2033.9Z" fill="#0000FF" fill-rule="evenodd"/><text fill="#000000" fill-opacity="0" font-family="Arial,Arial_MSFontService,sans-serif" font-size="40.8516" x="918.643" y="2069.65">π‰</text><path d="M920.387 2020.66 956.092 2020.66 956.092 2024.95 920.387 2024.95Z" fill="#0000FF" fill-rule="evenodd"/><text fill="#000000" fill-opacity="0" font-family="Arial,Arial_MSFontService,sans-serif" font-size="4.2959" x="920.387" y="2024.42">ΰ΄¤</text><path d="M961.245 2061.65 969.712 2061.65 971.997 2085.44C973.247 2083.51 974.351 2081.76 975.308 2080.2 976.265 2078.63 977.104 2077.2 977.827 2075.89 978.55 2074.58 979.175 2073.37 979.702 2072.26 980.229 2071.14 980.674 2070.08 981.035 2069.06 981.396 2068.05 981.699 2067.05 981.943 2066.08 982.188 2065.1 982.397 2064.09 982.573 2063.06L982.925 2061.65 987.612 2061.65 990.161 2085.44C993.384 2081.05 995.82 2077.2 997.471 2073.91 999.121 2070.62 999.946 2067.99 999.946 2066.02 999.946 2065.16 999.741 2064.55 999.331 2064.2 998.921 2063.85 998.179 2063.62 997.104 2063.53L997.456 2061.65 1005.72 2061.65 1006.74 2063.35C1005.92 2065.48 1005.02 2067.58 1004.03 2069.65 1003.05 2071.72 1001.89 2073.87 1000.56 2076.11 999.233 2078.35 997.681 2080.71 995.903 2083.21 994.126 2085.71 992.036 2088.45 989.634 2091.42L985.884 2091.42 983.511 2071.09C982.222 2074.05 980.596 2077.22 978.633 2080.58 976.67 2083.94 974.36 2087.55 971.704 2091.42L967.427 2091.42 964.673 2069.3C964.517 2068.13 964.38 2067.18 964.263 2066.47 964.146 2065.76 963.965 2065.2 963.721 2064.8 963.477 2064.4 963.13 2064.11 962.681 2063.94 962.231 2063.76 961.606 2063.62 960.806 2063.53Z" fill="#0000FF" fill-rule="evenodd"/><text fill="#000000" fill-opacity="0" font-family="Arial,Arial_MSFontService,sans-serif" font-size="29.7656" x="960.806" y="2087.7">π‘¤</text><path d="M1042.22 2056.11 1092.15 2056.11 1092.15 2061.5 1042.22 2061.5ZM1042.22 2039.29 1092.15 2039.29 1092.15 2044.68 1042.22 2044.68Z" fill="#0000FF" fill-rule="evenodd"/><text fill="#000000" fill-opacity="0" font-family="Arial,Arial_MSFontService,sans-serif" font-size="22.209" x="1042.22" y="2058.73">=</text><path d="M1134.07 2034.67C1135.8 2034.67 1137.16 2035.25 1138.16 2036.41 1139.16 2037.58 1139.66 2039.14 1139.66 2041.12 1139.66 2043.25 1139.24 2045.91 1138.4 2049.1L1136.62 2056.11C1136.16 2057.89 1135.83 2059.29 1135.63 2060.29 1135.43 2061.29 1135.28 2062.15 1135.18 2062.88 1135.09 2063.61 1135.04 2064.22 1135.04 2064.7 1135.04 2066.57 1135.35 2067.91 1135.97 2068.74 1136.59 2069.56 1137.61 2069.97 1139.01 2069.97 1140.15 2069.97 1141.37 2069.52 1142.68 2068.61 1143.99 2067.71 1145.38 2066.34 1146.85 2064.52 1148.33 2062.7 1149.51 2060.93 1150.4 2059.21 1151.29 2057.5 1152.02 2055.38 1152.59 2052.87L1156.44 2035.32 1163.45 2035.32 1157.53 2061.01C1156.94 2063.61 1156.64 2065.61 1156.64 2067.01 1156.64 2068.09 1156.82 2068.88 1157.17 2069.36 1157.52 2069.85 1158.07 2070.09 1158.83 2070.09 1159.64 2070.09 1160.5 2069.76 1161.42 2069.1 1162.34 2068.44 1163.64 2067.18 1165.31 2065.31L1167.62 2067.58C1165.17 2070.2 1163.07 2072.05 1161.34 2073.13 1159.61 2074.21 1157.78 2074.75 1155.83 2074.75 1154.16 2074.75 1152.82 2074.2 1151.82 2073.09 1150.82 2071.98 1150.32 2070.51 1150.32 2068.67 1150.32 2067.22 1150.64 2065.62 1151.29 2063.89L1150.81 2063.73C1148.13 2067.49 1145.6 2070.26 1143.21 2072.04 1140.82 2073.82 1138.36 2074.71 1135.85 2074.71 1133.34 2074.71 1131.41 2073.99 1130.06 2072.54 1128.7 2071.1 1128.03 2069.09 1128.03 2066.53 1128.03 2064.82 1128.42 2062.41 1129.2 2059.27L1131.84 2048.65C1132.57 2045.71 1132.93 2043.63 1132.93 2042.41 1132.93 2041.33 1132.76 2040.55 1132.41 2040.06 1132.05 2039.58 1131.5 2039.33 1130.74 2039.33 1129.91 2039.33 1129.02 2039.68 1128.09 2040.37 1127.16 2041.06 1125.88 2042.3 1124.26 2044.11L1121.95 2041.85C1124.25 2039.52 1125.98 2037.93 1127.14 2037.06 1128.3 2036.2 1129.41 2035.58 1130.48 2035.22 1131.55 2034.85 1132.74 2034.67 1134.07 2034.67Z" fill="#0000FF" fill-rule="evenodd"/><text fill="#000000" fill-opacity="0" font-family="Arial,Arial_MSFontService,sans-serif" font-size="40.0815" x="1121.95" y="2069.74">π‘Ά</text><path d="M1181.6 2061.65 1198.35 2061.65 1197.45 2066.19 1187.43 2066.19C1186.86 2068.71 1186.29 2071.23 1185.71 2073.75 1185.14 2076.27 1184.55 2078.81 1183.97 2081.37 1183.75 2082.25 1183.6 2083.03 1183.51 2083.71 1183.43 2084.4 1183.38 2084.99 1183.38 2085.5 1183.38 2086.12 1183.5 2086.62 1183.75 2086.99 1183.99 2087.36 1184.46 2087.55 1185.14 2087.55 1185.88 2087.55 1186.69 2087.22 1187.57 2086.57 1188.45 2085.91 1189.43 2084.95 1190.5 2083.68L1192.52 2085.62C1191.51 2086.67 1190.58 2087.57 1189.74 2088.31 1188.9 2089.05 1188.09 2089.66 1187.32 2090.13 1186.55 2090.6 1185.79 2090.94 1185.05 2091.15 1184.31 2091.37 1183.55 2091.48 1182.77 2091.48 1182.01 2091.48 1181.32 2091.34 1180.7 2091.07 1180.09 2090.79 1179.56 2090.41 1179.12 2089.91 1178.68 2089.41 1178.34 2088.82 1178.09 2088.14 1177.85 2087.45 1177.73 2086.71 1177.73 2085.91 1177.73 2085.34 1177.79 2084.62 1177.92 2083.73 1178.05 2082.84 1178.22 2081.85 1178.45 2080.75 1178.67 2079.66 1178.93 2078.5 1179.24 2077.27 1179.54 2076.04 1179.86 2074.79 1180.2 2073.52 1180.55 2072.25 1180.91 2071 1181.29 2069.77 1181.67 2068.54 1182.04 2067.38 1182.42 2066.31 1182.42 2066.23 1182.4 2066.19 1182.36 2066.19L1179.19 2066.19C1178.31 2066.21 1177.56 2066.28 1176.94 2066.38 1176.31 2066.49 1175.74 2066.68 1175.21 2066.95 1174.68 2067.23 1174.15 2067.6 1173.63 2068.08 1173.1 2068.56 1172.49 2069.18 1171.81 2069.94L1169.67 2067.89C1170.45 2067.03 1171.16 2066.29 1171.78 2065.65 1172.41 2065.02 1172.99 2064.47 1173.54 2064.01 1174.09 2063.55 1174.63 2063.17 1175.16 2062.87 1175.7 2062.57 1176.28 2062.33 1176.91 2062.15 1177.53 2061.97 1178.22 2061.85 1178.97 2061.78 1179.73 2061.72 1180.6 2061.67 1181.6 2061.65Z" fill="#0000FF" fill-rule="evenodd"/><text fill="#000000" fill-opacity="0" font-family="Arial,Arial_MSFontService,sans-serif" font-size="29.8242" x="1169.67" y="2087.75">π</text><path d="M1218.59 2033.25C1221.42 2033.25 1223.51 2033.97 1224.85 2035.4 1226.19 2036.83 1226.85 2038.91 1226.85 2041.64 1226.85 2043.56 1226.46 2046.06 1225.68 2049.14L1223.9 2055.95C1222.79 2060.19 1222.23 2063.28 1222.23 2065.23 1222.23 2067.63 1223.18 2068.84 1225.07 2068.84 1225.94 2068.84 1226.87 2068.51 1227.87 2067.86 1228.87 2067.22 1229.98 2066.22 1231.21 2064.89 1232.44 2063.55 1233.45 2062.07 1234.23 2060.45 1235.01 2058.83 1235.65 2056.91 1236.14 2054.69L1240.67 2033.9 1252.26 2033.9 1245.66 2061.99C1245.33 2063.37 1245.17 2064.73 1245.17 2066.08 1245.17 2066.97 1245.32 2067.66 1245.62 2068.15 1245.92 2068.63 1246.43 2068.88 1247.16 2068.88 1248 2068.88 1248.9 2068.5 1249.87 2067.74 1250.85 2066.99 1251.98 2065.86 1253.28 2064.38L1256.2 2067.3C1253.36 2070.13 1250.91 2072.09 1248.86 2073.15 1246.81 2074.22 1244.65 2074.75 1242.38 2074.75 1240.11 2074.75 1238.31 2074.13 1236.99 2072.87 1235.66 2071.61 1235 2069.96 1235 2067.9 1235 2067.23 1235.08 2066.58 1235.24 2065.96L1234.84 2065.64C1232.33 2068.74 1229.91 2071.04 1227.6 2072.52 1225.29 2074.01 1222.63 2074.75 1219.6 2074.75 1216.84 2074.75 1214.69 2073.97 1213.14 2072.4 1211.58 2070.84 1210.81 2068.7 1210.81 2066 1210.81 2065.14 1210.89 2064.05 1211.07 2062.76 1211.24 2061.46 1211.45 2060.31 1211.7 2059.31L1214.9 2046.67C1215.36 2044.86 1215.59 2043.28 1215.59 2041.93 1215.59 2040.87 1215.41 2040.14 1215.06 2039.74 1214.71 2039.33 1214.21 2039.13 1213.56 2039.13 1212.78 2039.13 1211.91 2039.5 1210.95 2040.24 1209.99 2040.99 1208.83 2042.12 1207.48 2043.63L1204.56 2040.71C1207.35 2037.93 1209.77 2035.99 1211.82 2034.9 1213.87 2033.8 1216.13 2033.25 1218.59 2033.25Z" fill="#0000FF" fill-rule="evenodd"/><text fill="#000000" fill-opacity="0" font-family="Arial,Arial_MSFontService,sans-serif" font-size="41.5" x="1204.56" y="2069.57">π’–</text><path d="M1269.94 2061.65 1286.7 2061.65 1285.79 2066.19 1275.77 2066.19C1275.2 2068.71 1274.63 2071.23 1274.06 2073.75 1273.48 2076.27 1272.9 2078.81 1272.31 2081.37 1272.1 2082.25 1271.95 2083.03 1271.86 2083.71 1271.77 2084.4 1271.73 2084.99 1271.73 2085.5 1271.73 2086.12 1271.85 2086.62 1272.09 2086.99 1272.34 2087.36 1272.8 2087.55 1273.48 2087.55 1274.23 2087.55 1275.04 2087.22 1275.92 2086.57 1276.79 2085.91 1277.77 2084.95 1278.85 2083.68L1280.87 2085.62C1279.85 2086.67 1278.92 2087.57 1278.08 2088.31 1277.24 2089.05 1276.44 2089.66 1275.67 2090.13 1274.9 2090.6 1274.14 2090.94 1273.4 2091.15 1272.65 2091.37 1271.89 2091.48 1271.11 2091.48 1270.35 2091.48 1269.66 2091.34 1269.05 2091.07 1268.43 2090.79 1267.9 2090.41 1267.46 2089.91 1267.02 2089.41 1266.68 2088.82 1266.44 2088.14 1266.19 2087.45 1266.07 2086.71 1266.07 2085.91 1266.07 2085.34 1266.14 2084.62 1266.26 2083.73 1266.39 2082.84 1266.57 2081.85 1266.79 2080.75 1267.01 2079.66 1267.28 2078.5 1267.58 2077.27 1267.88 2076.04 1268.21 2074.79 1268.55 2073.52 1268.89 2072.25 1269.25 2071 1269.63 2069.77 1270.01 2068.54 1270.39 2067.38 1270.76 2066.31 1270.76 2066.23 1270.74 2066.19 1270.7 2066.19L1267.54 2066.19C1266.66 2066.21 1265.91 2066.28 1265.28 2066.38 1264.66 2066.49 1264.08 2066.68 1263.55 2066.95 1263.03 2067.23 1262.5 2067.6 1261.97 2068.08 1261.44 2068.56 1260.84 2069.18 1260.15 2069.94L1258.02 2067.89C1258.8 2067.03 1259.5 2066.29 1260.12 2065.65 1260.75 2065.02 1261.34 2064.47 1261.88 2064.01 1262.43 2063.55 1262.97 2063.17 1263.51 2062.87 1264.05 2062.57 1264.63 2062.33 1265.25 2062.15 1265.88 2061.97 1266.57 2061.85 1267.32 2061.78 1268.07 2061.72 1268.94 2061.67 1269.94 2061.65Z" fill="#0000FF" fill-rule="evenodd"/><text fill="#000000" fill-opacity="0" font-family="Arial,Arial_MSFontService,sans-serif" font-size="29.8242" x="1258.02" y="2087.75">π</text><path d="M1320.89 2056.11 1370.82 2056.11 1370.82 2061.5 1320.89 2061.5ZM1320.89 2039.29 1370.82 2039.29 1370.82 2044.68 1320.89 2044.68Z" fill="#0000FF" fill-rule="evenodd"/><text fill="#000000" fill-opacity="0" font-family="Arial,Arial_MSFontService,sans-serif" font-size="22.209" x="1320.89" y="2058.73">=</text><path d="M1412.73 2034.67C1414.46 2034.67 1415.83 2035.25 1416.83 2036.41 1417.83 2037.58 1418.33 2039.14 1418.33 2041.12 1418.33 2043.25 1417.91 2045.91 1417.07 2049.1L1415.29 2056.11C1414.83 2057.89 1414.5 2059.29 1414.29 2060.29 1414.09 2061.29 1413.94 2062.15 1413.85 2062.88 1413.75 2063.61 1413.71 2064.22 1413.71 2064.7 1413.71 2066.57 1414.02 2067.91 1414.64 2068.74 1415.26 2069.56 1416.27 2069.97 1417.68 2069.97 1418.81 2069.97 1420.04 2069.52 1421.35 2068.61 1422.66 2067.71 1424.05 2066.34 1425.52 2064.52 1426.99 2062.7 1428.17 2060.93 1429.07 2059.21 1429.96 2057.5 1430.69 2055.38 1431.26 2052.87L1435.11 2035.32 1442.12 2035.32 1436.2 2061.01C1435.6 2063.61 1435.31 2065.61 1435.31 2067.01 1435.31 2068.09 1435.48 2068.88 1435.83 2069.36 1436.19 2069.85 1436.74 2070.09 1437.5 2070.09 1438.31 2070.09 1439.17 2069.76 1440.09 2069.1 1441.01 2068.44 1442.31 2067.18 1443.98 2065.31L1446.29 2067.58C1443.83 2070.2 1441.74 2072.05 1440.01 2073.13 1438.28 2074.21 1436.44 2074.75 1434.5 2074.75 1432.82 2074.75 1431.48 2074.2 1430.48 2073.09 1429.49 2071.98 1428.99 2070.51 1428.99 2068.67 1428.99 2067.22 1429.31 2065.62 1429.96 2063.89L1429.47 2063.73C1426.8 2067.49 1424.26 2070.26 1421.87 2072.04 1419.48 2073.82 1417.03 2074.71 1414.52 2074.71 1412 2074.71 1410.07 2073.99 1408.72 2072.54 1407.37 2071.1 1406.7 2069.09 1406.7 2066.53 1406.7 2064.82 1407.09 2062.41 1407.87 2059.27L1410.51 2048.65C1411.23 2045.71 1411.6 2043.63 1411.6 2042.41 1411.6 2041.33 1411.42 2040.55 1411.07 2040.06 1410.72 2039.58 1410.17 2039.33 1409.41 2039.33 1408.57 2039.33 1407.69 2039.68 1406.76 2040.37 1405.82 2041.06 1404.55 2042.3 1402.93 2044.11L1400.62 2041.85C1402.91 2039.52 1404.64 2037.93 1405.8 2037.06 1406.97 2036.2 1408.08 2035.58 1409.15 2035.22 1410.21 2034.85 1411.41 2034.67 1412.73 2034.67Z" fill="#0000FF" fill-rule="evenodd"/><text fill="#000000" fill-opacity="0" font-family="Arial,Arial_MSFontService,sans-serif" font-size="40.0815" x="1400.62" y="2069.74">π‘Ά</text><path d="M1460.26 2061.65 1477.02 2061.65 1476.11 2066.19 1466.09 2066.19C1465.53 2068.71 1464.95 2071.23 1464.38 2073.75 1463.8 2076.27 1463.22 2078.81 1462.64 2081.37 1462.42 2082.25 1462.27 2083.03 1462.18 2083.71 1462.09 2084.4 1462.05 2084.99 1462.05 2085.5 1462.05 2086.12 1462.17 2086.62 1462.42 2086.99 1462.66 2087.36 1463.12 2087.55 1463.81 2087.55 1464.55 2087.55 1465.36 2087.22 1466.24 2086.57 1467.12 2085.91 1468.09 2084.95 1469.17 2083.68L1471.19 2085.62C1470.17 2086.67 1469.25 2087.57 1468.41 2088.31 1467.57 2089.05 1466.76 2089.66 1465.99 2090.13 1465.22 2090.6 1464.46 2090.94 1463.72 2091.15 1462.98 2091.37 1462.22 2091.48 1461.43 2091.48 1460.67 2091.48 1459.98 2091.34 1459.37 2091.07 1458.75 2090.79 1458.23 2090.41 1457.79 2089.91 1457.35 2089.41 1457.01 2088.82 1456.76 2088.14 1456.52 2087.45 1456.39 2086.71 1456.39 2085.91 1456.39 2085.34 1456.46 2084.62 1456.59 2083.73 1456.71 2082.84 1456.89 2081.85 1457.11 2080.75 1457.34 2079.66 1457.6 2078.5 1457.9 2077.27 1458.21 2076.04 1458.53 2074.79 1458.87 2073.52 1459.21 2072.25 1459.57 2071 1459.95 2069.77 1460.34 2068.54 1460.71 2067.38 1461.08 2066.31 1461.08 2066.23 1461.06 2066.19 1461.02 2066.19L1457.86 2066.19C1456.98 2066.21 1456.23 2066.28 1455.6 2066.38 1454.98 2066.49 1454.4 2066.68 1453.88 2066.95 1453.35 2067.23 1452.82 2067.6 1452.29 2068.08 1451.77 2068.56 1451.16 2069.18 1450.48 2069.94L1448.34 2067.89C1449.12 2067.03 1449.82 2066.29 1450.45 2065.65 1451.07 2065.02 1451.66 2064.47 1452.21 2064.01 1452.75 2063.55 1453.29 2063.17 1453.83 2062.87 1454.37 2062.57 1454.95 2062.33 1455.57 2062.15 1456.2 2061.97 1456.89 2061.85 1457.64 2061.78 1458.39 2061.72 1459.27 2061.67 1460.26 2061.65Z" fill="#0000FF" fill-rule="evenodd"/><text fill="#000000" fill-opacity="0" font-family="Arial,Arial_MSFontService,sans-serif" font-size="29.8242" x="1448.34" y="2087.75">π</text><path d="M1466.77 2005.96C1468.8 2005.96 1470.54 2006.19 1471.97 2006.65 1473.41 2007.11 1474.57 2007.73 1475.47 2008.51 1476.37 2009.29 1477.02 2010.23 1477.42 2011.32 1477.82 2012.42 1478.02 2013.6 1478.02 2014.87 1478.02 2015.63 1477.97 2016.34 1477.86 2016.99 1477.75 2017.65 1477.57 2018.29 1477.3 2018.93 1477.04 2019.56 1476.69 2020.2 1476.26 2020.84 1475.83 2021.49 1475.3 2022.17 1474.65 2022.9 1474.16 2023.52 1473.53 2024.24 1472.75 2025.06 1471.97 2025.88 1471.11 2026.76 1470.18 2027.7 1469.26 2028.64 1468.29 2029.61 1467.27 2030.63 1466.25 2031.65 1465.27 2032.65 1464.31 2033.65 1463.35 2034.64 1462.47 2035.61 1461.67 2036.55 1460.87 2037.49 1460.22 2038.34 1459.71 2039.13L1470.55 2039.13C1471.47 2039.13 1472.2 2039.09 1472.75 2039.02 1473.29 2038.95 1473.75 2038.8 1474.11 2038.57 1474.47 2038.33 1474.78 2037.98 1475.03 2037.5 1475.29 2037.02 1475.58 2036.36 1475.91 2035.52L1478.64 2035.52C1478.54 2036.91 1478.45 2038.31 1478.36 2039.71 1478.27 2041.12 1478.18 2042.51 1478.08 2043.9L1453.27 2043.9 1453.27 2042.38C1453.73 2041.32 1454.28 2040.28 1454.91 2039.26 1455.53 2038.23 1456.23 2037.19 1457.02 2036.14 1457.8 2035.08 1458.69 2033.99 1459.68 2032.87 1460.68 2031.75 1461.78 2030.58 1462.99 2029.37 1464.83 2027.53 1466.32 2025.97 1467.47 2024.67 1468.63 2023.37 1469.54 2022.21 1470.2 2021.2 1470.86 2020.18 1471.32 2019.24 1471.56 2018.38 1471.81 2017.52 1471.93 2016.61 1471.93 2015.63 1471.93 2014.63 1471.79 2013.72 1471.5 2012.88 1471.22 2012.04 1470.81 2011.32 1470.29 2010.74 1469.76 2010.15 1469.09 2009.69 1468.28 2009.36 1467.47 2009.03 1466.54 2008.86 1465.48 2008.86 1463.67 2008.86 1462.14 2009.36 1460.91 2010.34 1459.68 2011.33 1458.72 2012.76 1458.04 2014.63L1454.2 2014.63 1454.2 2008.92C1456.7 2007.89 1459 2007.13 1461.1 2006.66 1463.2 2006.2 1465.09 2005.96 1466.77 2005.96Z" fill="#0000FF" fill-rule="evenodd"/><text fill="#000000" fill-opacity="0" font-family="Arial,Arial_MSFontService,sans-serif" font-size="37.9395" x="1453.27" y="2039.16">2</text><path d="M1513.38 2033.25C1515.46 2033.25 1517.69 2033.42 1520.09 2033.76 1522.48 2034.1 1524.66 2034.55 1526.63 2035.12L1524.52 2044.8 1519.38 2044.8C1519.13 2042.29 1518.49 2040.44 1517.45 2039.25 1516.41 2038.06 1514.92 2037.47 1512.97 2037.47 1511.16 2037.47 1509.71 2037.93 1508.62 2038.87 1507.52 2039.8 1506.98 2041.06 1506.98 2042.66 1506.98 2044.06 1507.43 2045.29 1508.35 2046.34 1509.27 2047.4 1511.05 2048.72 1513.7 2050.32 1516.57 2052.02 1518.62 2053.77 1519.86 2055.58 1521.11 2057.39 1521.73 2059.52 1521.73 2061.95 1521.73 2064.7 1520.99 2067.05 1519.52 2069 1518.05 2070.94 1516.03 2072.39 1513.48 2073.34 1510.93 2074.28 1508.02 2074.75 1504.75 2074.75 1499.5 2074.75 1494.48 2074.11 1489.67 2072.81L1491.94 2062.76 1497.09 2062.76C1497.22 2065.19 1497.85 2067.09 1498.97 2068.47 1500.09 2069.85 1501.81 2070.54 1504.14 2070.54 1506.27 2070.54 1507.92 2070.02 1509.08 2068.98 1510.24 2067.94 1510.83 2066.47 1510.83 2064.58 1510.83 2063.45 1510.64 2062.49 1510.26 2061.7 1509.88 2060.92 1509.26 2060.16 1508.39 2059.41 1507.53 2058.67 1506.12 2057.71 1504.18 2056.52 1501.48 2054.9 1499.51 2053.21 1498.28 2051.47 1497.05 2049.73 1496.44 2047.78 1496.44 2045.61 1496.44 2041.64 1497.92 2038.59 1500.9 2036.46 1503.87 2034.32 1508.03 2033.25 1513.38 2033.25Z" fill="#0000FF" fill-rule="evenodd"/><text fill="#000000" fill-opacity="0" font-family="Arial,Arial_MSFontService,sans-serif" font-size="41.5" x="1489.67" y="2069.57">π’”</text><path d="M1022.36 1247.74 1046.59 1247.74 1044.85 1255.28 1032.29 1255.28 1027.75 1274.65C1027.23 1276.84 1026.98 1278.6 1026.98 1279.92 1026.98 1280.98 1027.15 1281.71 1027.51 1282.11 1027.86 1282.52 1028.36 1282.72 1029 1282.72 1029.92 1282.72 1030.9 1282.32 1031.92 1281.52 1032.95 1280.73 1034.27 1279.38 1035.89 1277.49L1038.81 1280.41C1036.52 1283.11 1034.19 1285.15 1031.84 1286.53 1029.49 1287.91 1026.92 1288.6 1024.14 1288.6 1021.36 1288.6 1019.32 1287.89 1018.02 1286.49 1016.72 1285.08 1016.08 1282.96 1016.08 1280.13 1016.08 1278.53 1016.37 1276.41 1016.97 1273.76L1017.25 1272.55C1017.82 1270.14 1018.57 1267.29 1019.5 1264 1020.43 1260.7 1021.32 1257.9 1022.16 1255.61L1021.95 1255.28 1019.08 1255.28C1017.67 1255.28 1016.52 1255.4 1015.61 1255.65 1014.71 1255.89 1013.82 1256.31 1012.96 1256.9 1012.09 1257.5 1011.01 1258.48 1009.71 1259.86L1006.31 1256.82C1008.55 1254.12 1010.4 1252.16 1011.84 1250.95 1013.29 1249.73 1014.77 1248.89 1016.28 1248.43 1017.79 1247.97 1019.82 1247.74 1022.36 1247.74Z" fill="#666666" fill-rule="evenodd"/><text fill="#000000" fill-opacity="0" font-family="Arial,Arial_MSFontService,sans-serif" font-size="40.8516" x="1006.31" y="1283.49">π‰</text><path d="M1008.05 1234.5 1043.76 1234.5 1043.76 1238.79 1008.05 1238.79Z" fill="#666666" fill-rule="evenodd"/><text fill="#000000" fill-opacity="0" font-family="Arial,Arial_MSFontService,sans-serif" font-size="4.2959" x="1008.05" y="1238.26">ΰ΄¤</text><path d="M1066.72 1271.25 1054.83 1299.52 1076.48 1299.52ZM1065.55 1264.01 1070.47 1264.01 1084.01 1302.48 1084.01 1304.79 1048.79 1304.79 1048.79 1302.48Z" fill="#666666" fill-rule="evenodd"/><text fill="#000000" fill-opacity="0" font-family="Arial,Arial_MSFontService,sans-serif" font-size="40.7812" x="1048.79" y="1299.69">Ξ”</text><path d="M1327.44 1288.36C1330.28 1288.36 1332.37 1289.08 1333.71 1290.51 1335.04 1291.94 1335.71 1294.02 1335.71 1296.75 1335.71 1298.67 1335.32 1301.17 1334.54 1304.25L1332.75 1311.06C1331.65 1315.3 1331.09 1318.39 1331.09 1320.34 1331.09 1322.74 1332.04 1323.95 1333.93 1323.95 1334.79 1323.95 1335.73 1323.62 1336.73 1322.97 1337.73 1322.32 1338.84 1321.33 1340.07 1319.99 1341.3 1318.66 1342.3 1317.18 1343.09 1315.56 1343.87 1313.94 1344.51 1312.02 1344.99 1309.8L1349.53 1289.01 1361.12 1289.01 1354.52 1317.1C1354.19 1318.47 1354.03 1319.84 1354.03 1321.19 1354.03 1322.08 1354.18 1322.77 1354.48 1323.26 1354.77 1323.74 1355.29 1323.99 1356.02 1323.99 1356.85 1323.99 1357.76 1323.61 1358.73 1322.85 1359.7 1322.1 1360.84 1320.97 1362.14 1319.49L1365.05 1322.41C1362.22 1325.24 1359.77 1327.19 1357.72 1328.26 1355.67 1329.33 1353.5 1329.86 1351.23 1329.86 1348.96 1329.86 1347.17 1329.23 1345.84 1327.98 1344.52 1326.72 1343.86 1325.07 1343.86 1323.01 1343.86 1322.34 1343.94 1321.69 1344.1 1321.07L1343.7 1320.74C1341.18 1323.85 1338.77 1326.15 1336.46 1327.63 1334.15 1329.12 1331.48 1329.86 1328.46 1329.86 1325.7 1329.86 1323.55 1329.08 1321.99 1327.51 1320.44 1325.95 1319.66 1323.81 1319.66 1321.11 1319.66 1320.24 1319.75 1319.16 1319.93 1317.87 1320.1 1316.57 1320.31 1315.42 1320.56 1314.42L1323.76 1301.78C1324.22 1299.97 1324.45 1298.39 1324.45 1297.04 1324.45 1295.98 1324.27 1295.25 1323.92 1294.85 1323.57 1294.44 1323.07 1294.24 1322.42 1294.24 1321.64 1294.24 1320.76 1294.61 1319.81 1295.35 1318.85 1296.1 1317.69 1297.22 1316.34 1298.74L1313.42 1295.82C1316.21 1293.04 1318.62 1291.1 1320.68 1290 1322.73 1288.91 1324.99 1288.36 1327.44 1288.36Z" fill="#999999" fill-rule="evenodd"/><text fill="#000000" fill-opacity="0" font-family="Arial,Arial_MSFontService,sans-serif" font-size="41.5" x="1313.42" y="1324.68">π’–</text><path d="M1311.97 1269.22 1364.97 1269.22 1364.97 1274.22 1311.97 1274.22Z" fill="#999999" fill-rule="evenodd"/><path d="M1385.74 1312.51 1373.85 1340.78 1395.5 1340.78ZM1384.57 1305.28 1389.49 1305.28 1403.03 1343.74 1403.03 1346.06 1367.81 1346.06 1367.81 1343.74Z" fill="#999999" fill-rule="evenodd"/><text fill="#000000" fill-opacity="0" font-family="Arial,Arial_MSFontService,sans-serif" font-size="40.7812" x="1367.81" y="1340.96">Ξ”</text><path d="M1438.2 1311.22 1488.13 1311.22 1488.13 1316.61 1438.2 1316.61ZM1438.2 1294.4 1488.13 1294.4 1488.13 1299.79 1438.2 1299.79Z" fill-rule="evenodd"/><text fill="#000000" fill-opacity="0" font-family="Arial,Arial_MSFontService,sans-serif" font-size="22.209" x="1438.2" y="1313.83">=</text><path d="M1527.29 1273.89 1547.68 1273.89 1547.11 1276.57C1545.57 1277 1544.44 1277.76 1543.71 1278.84 1542.98 1279.92 1542.29 1281.92 1541.64 1284.84L1536.17 1309.68C1535.76 1311.49 1535.49 1313 1535.36 1314.2 1535.22 1315.4 1535.15 1316.56 1535.15 1317.66 1535.15 1320.1 1535.76 1321.95 1536.96 1323.22 1538.16 1324.49 1539.92 1325.12 1542.25 1325.12 1544.54 1325.12 1546.46 1324.62 1548 1323.62 1549.54 1322.62 1550.78 1321.2 1551.71 1319.35 1552.64 1317.5 1553.43 1315.11 1554.08 1312.19L1560.12 1284.84C1560.36 1283.78 1560.51 1282.88 1560.57 1282.14 1560.62 1281.4 1560.65 1280.72 1560.65 1280.1 1560.65 1278.96 1560.38 1278.13 1559.86 1277.6 1559.33 1277.08 1558.47 1276.73 1557.28 1276.57L1557.85 1273.89 1575.11 1273.89 1574.55 1276.57C1572.98 1277 1571.83 1277.77 1571.08 1278.88 1570.34 1279.99 1569.67 1281.97 1569.08 1284.84L1563.6 1309.92C1562.82 1313.57 1561.77 1316.69 1560.46 1319.29 1559.15 1321.88 1557.58 1323.94 1555.74 1325.47 1553.91 1326.99 1551.77 1328.11 1549.34 1328.81 1546.91 1329.51 1543.94 1329.86 1540.42 1329.86 1538.13 1329.86 1535.96 1329.57 1533.92 1328.99 1531.88 1328.41 1530.1 1327.51 1528.59 1326.3 1527.08 1325.08 1525.88 1323.56 1525 1321.74 1524.12 1319.91 1523.69 1317.75 1523.69 1315.23 1523.69 1313.88 1523.78 1312.42 1523.97 1310.86 1524.16 1309.29 1524.62 1306.84 1525.35 1303.52L1529.56 1284.84C1529.91 1283.27 1530.09 1281.69 1530.09 1280.1 1530.09 1278.96 1529.83 1278.13 1529.3 1277.6 1528.77 1277.08 1527.91 1276.73 1526.73 1276.57Z" fill-rule="evenodd"/><text fill="#000000" fill-opacity="0" font-family="Arial,Arial_MSFontService,sans-serif" font-size="55.9683" x="1523.69" y="1322.87">π‘Ό</text><path d="M1619.28 1308.06 1647.47 1308.06 1645.42 1317.2 1642.28 1317.2C1642.18 1316.07 1642.09 1315.12 1641.99 1314.34 1641.89 1313.57 1641.71 1312.95 1641.45 1312.48 1641.18 1312.02 1640.82 1311.68 1640.35 1311.47 1639.88 1311.27 1639.25 1311.17 1638.44 1311.17L1628.28 1311.17 1625.2 1324.76 1630.97 1324.76C1631.72 1324.76 1632.34 1324.7 1632.83 1324.58 1633.33 1324.47 1633.78 1324.26 1634.17 1323.97 1634.56 1323.68 1634.91 1323.28 1635.24 1322.78 1635.56 1322.28 1635.92 1321.64 1636.31 1320.86L1639.24 1320.86 1636.63 1332.08 1633.82 1332.08C1633.8 1331.07 1633.75 1330.27 1633.68 1329.7 1633.62 1329.12 1633.47 1328.69 1633.24 1328.42 1633.02 1328.15 1632.71 1327.99 1632.32 1327.94 1631.93 1327.89 1631.41 1327.86 1630.77 1327.86L1624.56 1327.86 1621.1 1343.04 1630.09 1343.04C1631.21 1343.04 1632.11 1342.95 1632.8 1342.78 1633.5 1342.6 1634.13 1342.26 1634.71 1341.75 1635.29 1341.24 1635.86 1340.52 1636.42 1339.58 1636.99 1338.65 1637.7 1337.42 1638.56 1335.89L1641.75 1335.89 1639.12 1346.06 1612.05 1346.06 1612.37 1344.27C1612.98 1344.17 1613.47 1344.05 1613.86 1343.9 1614.25 1343.76 1614.6 1343.48 1614.9 1343.06 1615.21 1342.64 1615.48 1342.01 1615.72 1341.17 1615.97 1340.33 1616.26 1339.15 1616.59 1337.65L1621.39 1316.29C1621.59 1315.43 1621.74 1314.67 1621.83 1314.01 1621.93 1313.34 1621.98 1312.78 1621.98 1312.31 1621.98 1311.45 1621.75 1310.84 1621.31 1310.48 1620.86 1310.12 1620.04 1309.93 1618.84 1309.91ZM1586.28 1308.06 1598.65 1308.06 1598.33 1309.82C1597.64 1309.99 1597.1 1310.15 1596.7 1310.27 1596.3 1310.4 1595.96 1310.67 1595.67 1311.08 1595.39 1311.49 1595.14 1312.1 1594.91 1312.91 1594.69 1313.72 1594.4 1314.91 1594.05 1316.47L1588.1 1342.95 1595.75 1342.95C1596.82 1342.95 1597.75 1342.86 1598.53 1342.67 1599.31 1342.49 1600.03 1342.1 1600.7 1341.5 1601.36 1340.91 1602 1340.06 1602.62 1338.97 1603.23 1337.87 1603.91 1336.42 1604.65 1334.6L1607.88 1334.6 1604.86 1346.06 1579.05 1346.06 1579.37 1344.27C1579.98 1344.17 1580.47 1344.05 1580.86 1343.9 1581.25 1343.76 1581.6 1343.48 1581.9 1343.06 1582.21 1342.64 1582.48 1342.01 1582.72 1341.17 1582.97 1340.33 1583.26 1339.15 1583.59 1337.65L1588.39 1316.29C1588.59 1315.43 1588.74 1314.67 1588.83 1314.01 1588.93 1313.34 1588.98 1312.78 1588.98 1312.31 1588.98 1311.45 1588.75 1310.84 1588.31 1310.48 1587.86 1310.12 1587.04 1309.93 1585.84 1309.91ZM1669.82 1307.5C1671.68 1307.5 1673.46 1307.65 1675.17 1307.93 1676.88 1308.21 1678.67 1308.67 1680.55 1309.29L1678.88 1316.73 1675.68 1316.73C1675.62 1315.64 1675.45 1314.7 1675.17 1313.9 1674.89 1313.11 1674.49 1312.47 1673.98 1311.97 1673.48 1311.47 1672.83 1311.1 1672.05 1310.86 1671.27 1310.61 1670.34 1310.49 1669.27 1310.49 1668.11 1310.49 1667.07 1310.65 1666.13 1310.96 1665.19 1311.27 1664.39 1311.72 1663.73 1312.29 1663.07 1312.87 1662.55 1313.56 1662.19 1314.37 1661.83 1315.18 1661.65 1316.07 1661.65 1317.02 1661.65 1317.75 1661.74 1318.41 1661.91 1319.02 1662.09 1319.62 1662.39 1320.21 1662.82 1320.77 1663.25 1321.34 1663.84 1321.92 1664.59 1322.5 1665.35 1323.09 1666.3 1323.73 1667.45 1324.44 1668.86 1325.32 1670.06 1326.15 1671.07 1326.93 1672.07 1327.71 1672.89 1328.52 1673.53 1329.36 1674.16 1330.2 1674.63 1331.09 1674.92 1332.04 1675.21 1332.99 1675.36 1334.05 1675.36 1335.22 1675.36 1336.92 1675.02 1338.47 1674.35 1339.88 1673.68 1341.28 1672.72 1342.49 1671.48 1343.51 1670.24 1344.52 1668.75 1345.31 1667.03 1345.87 1665.3 1346.42 1663.37 1346.7 1661.24 1346.7 1659.44 1346.7 1657.51 1346.55 1655.44 1346.25 1653.37 1345.95 1651.33 1345.5 1649.32 1344.92L1651.04 1337.01 1654.15 1337.01C1654.21 1339.35 1654.83 1341.05 1656.02 1342.1 1657.22 1343.16 1659.05 1343.69 1661.53 1343.69 1662.8 1343.69 1663.94 1343.52 1664.96 1343.19 1665.98 1342.85 1666.83 1342.38 1667.54 1341.75 1668.24 1341.13 1668.78 1340.36 1669.15 1339.47 1669.52 1338.57 1669.71 1337.56 1669.71 1336.45 1669.71 1335.67 1669.61 1334.96 1669.41 1334.32 1669.22 1333.69 1668.88 1333.06 1668.39 1332.44 1667.9 1331.81 1667.24 1331.18 1666.41 1330.53 1665.58 1329.89 1664.55 1329.18 1663.32 1328.42 1662.09 1327.66 1661.02 1326.9 1660.11 1326.15 1659.2 1325.4 1658.45 1324.62 1657.84 1323.81 1657.24 1323 1656.78 1322.15 1656.48 1321.27 1656.18 1320.39 1656.02 1319.46 1656.02 1318.46 1656.02 1316.82 1656.35 1315.33 1656.99 1313.99 1657.64 1312.65 1658.56 1311.5 1659.76 1310.54 1660.96 1309.57 1662.42 1308.82 1664.12 1308.29 1665.83 1307.77 1667.73 1307.5 1669.82 1307.5Z" fill-rule="evenodd"/><text fill="#000000" fill-opacity="0" font-family="Arial,Arial_MSFontService,sans-serif" font-size="39.1992" x="1579.05" y="1341.8">πΏπΈπ‘†</text><path d="M1710.34 1302.79 1760.27 1302.79 1760.27 1308.18 1710.34 1308.18Z" fill-rule="evenodd"/><text fill="#000000" fill-opacity="0" font-family="Arial,Arial_MSFontService,sans-serif" font-size="5.39014" x="1710.34" y="1307.51">β’</text><path d="M1799.51 1288.36C1802.34 1288.36 1804.43 1289.08 1805.77 1290.51 1807.1 1291.94 1807.77 1294.02 1807.77 1296.75 1807.77 1298.67 1807.38 1301.17 1806.6 1304.25L1804.81 1311.06C1803.71 1315.3 1803.15 1318.39 1803.15 1320.34 1803.15 1322.74 1804.1 1323.95 1805.99 1323.95 1806.85 1323.95 1807.79 1323.62 1808.79 1322.97 1809.79 1322.32 1810.9 1321.33 1812.13 1319.99 1813.36 1318.66 1814.37 1317.18 1815.15 1315.56 1815.93 1313.94 1816.57 1312.02 1817.05 1309.8L1821.59 1289.01 1833.18 1289.01 1826.58 1317.1C1826.25 1318.47 1826.09 1319.84 1826.09 1321.19 1826.09 1322.08 1826.24 1322.77 1826.54 1323.26 1826.83 1323.74 1827.35 1323.99 1828.08 1323.99 1828.91 1323.99 1829.82 1323.61 1830.79 1322.85 1831.77 1322.1 1832.9 1320.97 1834.2 1319.49L1837.11 1322.41C1834.28 1325.24 1831.83 1327.19 1829.78 1328.26 1827.73 1329.33 1825.56 1329.86 1823.29 1329.86 1821.03 1329.86 1819.23 1329.23 1817.9 1327.98 1816.58 1326.72 1815.92 1325.07 1815.92 1323.01 1815.92 1322.34 1816 1321.69 1816.16 1321.07L1815.76 1320.74C1813.24 1323.85 1810.83 1326.15 1808.52 1327.63 1806.21 1329.12 1803.54 1329.86 1800.52 1329.86 1797.76 1329.86 1795.61 1329.08 1794.05 1327.51 1792.5 1325.95 1791.72 1323.81 1791.72 1321.11 1791.72 1320.24 1791.81 1319.16 1791.99 1317.87 1792.16 1316.57 1792.37 1315.42 1792.62 1314.42L1795.82 1301.78C1796.28 1299.97 1796.51 1298.39 1796.51 1297.04 1796.51 1295.98 1796.33 1295.25 1795.98 1294.85 1795.63 1294.44 1795.13 1294.24 1794.48 1294.24 1793.7 1294.24 1792.82 1294.61 1791.87 1295.35 1790.91 1296.1 1789.75 1297.22 1788.4 1298.74L1785.48 1295.82C1788.27 1293.04 1790.68 1291.1 1792.74 1290 1794.79 1288.91 1797.05 1288.36 1799.51 1288.36Z" fill="#FF0A0A" fill-rule="evenodd"/><text fill="#000000" fill-opacity="0" font-family="Arial,Arial_MSFontService,sans-serif" font-size="41.5" x="1785.48" y="1324.68">π’–</text><path d="M1857.8 1315.49 1845.91 1343.76 1867.56 1343.76ZM1856.63 1308.26 1861.55 1308.26 1875.09 1346.72 1875.09 1349.04 1839.87 1349.04 1839.87 1346.72Z" fill="#FF0A0A" fill-rule="evenodd"/><text fill="#000000" fill-opacity="0" font-family="Arial,Arial_MSFontService,sans-serif" font-size="40.7812" x="1839.87" y="1343.94">Ξ”</text><path d="M1868.78 1264.98 1876.34 1264.98 1876.34 1267.26 1866.58 1290.73 1863.16 1289.7ZM1847.78 1264.98 1855.34 1264.98 1855.34 1267.26 1845.58 1290.73 1842.16 1289.7Z" fill="#FF0A0A" fill-rule="evenodd"/><text fill="#000000" fill-opacity="0" font-family="Arial,Arial_MSFontService,sans-serif" font-size="25.752" x="1842.16" y="1287.51">β€²β€²</text><path d="M895.5 1892.06 1548.13 1892.06 1548.13 1898.94 895.5 1898.94ZM1543.55 1881.75 1571.05 1895.5 1543.55 1909.25Z"/><path d="M1260.38 1681.6C1263.22 1681.6 1265.3 1682.32 1266.64 1683.75 1267.98 1685.18 1268.65 1687.26 1268.65 1689.99 1268.65 1691.91 1268.26 1694.41 1267.47 1697.49L1265.69 1704.3C1264.58 1708.54 1264.03 1711.63 1264.03 1713.58 1264.03 1715.98 1264.97 1717.19 1266.86 1717.19 1267.73 1717.19 1268.66 1716.86 1269.66 1716.21 1270.66 1715.56 1271.78 1714.57 1273 1713.23 1274.23 1711.9 1275.24 1710.42 1276.02 1708.8 1276.81 1707.18 1277.44 1705.26 1277.93 1703.04L1282.47 1682.25 1294.06 1682.25 1287.45 1710.34C1287.13 1711.71 1286.97 1713.08 1286.97 1714.43 1286.97 1715.32 1287.11 1716.01 1287.41 1716.5 1287.71 1716.98 1288.22 1717.23 1288.95 1717.23 1289.79 1717.23 1290.69 1716.85 1291.67 1716.09 1292.64 1715.33 1293.77 1714.21 1295.07 1712.73L1297.99 1715.65C1295.15 1718.48 1292.71 1720.43 1290.65 1721.5 1288.6 1722.57 1286.44 1723.1 1284.17 1723.1 1281.9 1723.1 1280.1 1722.47 1278.78 1721.22 1277.46 1719.96 1276.79 1718.31 1276.79 1716.25 1276.79 1715.58 1276.87 1714.93 1277.04 1714.31L1276.63 1713.98C1274.12 1717.09 1271.71 1719.39 1269.4 1720.87 1267.09 1722.36 1264.42 1723.1 1261.39 1723.1 1258.64 1723.1 1256.48 1722.32 1254.93 1720.75 1253.38 1719.18 1252.6 1717.05 1252.6 1714.35 1252.6 1713.48 1252.69 1712.4 1252.86 1711.11 1253.04 1709.81 1253.25 1708.66 1253.49 1707.66L1256.69 1695.02C1257.15 1693.21 1257.38 1691.63 1257.38 1690.28 1257.38 1689.22 1257.21 1688.49 1256.85 1688.09 1256.5 1687.68 1256 1687.48 1255.35 1687.48 1254.57 1687.48 1253.7 1687.85 1252.74 1688.59 1251.78 1689.34 1250.63 1690.46 1249.28 1691.98L1246.36 1689.06C1249.14 1686.28 1251.56 1684.34 1253.61 1683.24 1255.67 1682.15 1257.92 1681.6 1260.38 1681.6Z" fill="#1A1AFF" fill-rule="evenodd"/><text fill="#000000" fill-opacity="0" font-family="Arial,Arial_MSFontService,sans-serif" font-size="41.5" x="1246.36" y="1717.91">π’–</text><path d="M1248.64 1668.36 1295.69 1668.36 1295.69 1672.66 1248.64 1672.66Z" fill="#1A1AFF" fill-rule="evenodd"/><text fill="#000000" fill-opacity="0" font-family="Arial,Arial_MSFontService,sans-serif" font-size="4.2959" x="1248.64" y="1672.12">ΰ΄¥</text><path d="M1316.07 1709.39C1317.96 1709.39 1319.71 1709.5 1321.3 1709.74 1322.89 1709.97 1324.44 1710.31 1325.94 1710.76L1324.54 1717.38 1321.93 1717.38C1321.71 1715.63 1321.13 1714.33 1320.18 1713.49 1319.24 1712.65 1317.77 1712.23 1315.78 1712.23 1314.97 1712.23 1314.23 1712.33 1313.55 1712.55 1312.87 1712.76 1312.28 1713.06 1311.79 1713.44 1311.3 1713.82 1310.92 1714.28 1310.65 1714.81 1310.38 1715.33 1310.24 1715.91 1310.24 1716.53 1310.24 1717.1 1310.31 1717.62 1310.44 1718.09 1310.58 1718.56 1310.85 1719.01 1311.25 1719.46 1311.65 1719.91 1312.22 1720.38 1312.95 1720.87 1313.68 1721.36 1314.64 1721.91 1315.83 1722.54 1317.08 1723.22 1318.12 1723.88 1318.95 1724.5 1319.78 1725.13 1320.44 1725.76 1320.93 1726.41 1321.42 1727.05 1321.76 1727.74 1321.96 1728.47 1322.15 1729.2 1322.25 1730.02 1322.25 1730.92 1322.25 1732.31 1321.97 1733.55 1321.4 1734.65 1320.83 1735.76 1320.04 1736.69 1319.03 1737.45 1318.01 1738.21 1316.82 1738.8 1315.44 1739.21 1314.06 1739.62 1312.55 1739.83 1310.91 1739.83 1309.12 1739.83 1307.35 1739.71 1305.61 1739.47 1303.87 1739.24 1302.04 1738.84 1300.1 1738.27L1301.63 1731.59 1304.17 1731.59C1304.27 1733.41 1304.84 1734.77 1305.89 1735.68 1306.93 1736.59 1308.55 1737.04 1310.74 1737.04 1312.69 1737.04 1314.23 1736.62 1315.35 1735.78 1316.47 1734.94 1317.04 1733.77 1317.04 1732.27 1317.04 1731.58 1316.97 1730.99 1316.83 1730.49 1316.69 1730 1316.43 1729.52 1316.02 1729.07 1315.62 1728.62 1315.08 1728.16 1314.38 1727.68 1313.69 1727.2 1312.79 1726.65 1311.67 1726.03 1310.52 1725.38 1309.53 1724.75 1308.7 1724.12 1307.87 1723.5 1307.19 1722.86 1306.65 1722.22 1306.11 1721.57 1305.72 1720.9 1305.46 1720.2 1305.21 1719.49 1305.08 1718.74 1305.08 1717.94 1305.08 1716.71 1305.34 1715.57 1305.86 1714.53 1306.38 1713.48 1307.11 1712.58 1308.07 1711.82 1309.03 1711.06 1310.18 1710.46 1311.53 1710.03 1312.88 1709.6 1314.39 1709.39 1316.07 1709.39Z" fill="#1A1AFF" fill-rule="evenodd"/><text fill="#000000" fill-opacity="0" font-family="Arial,Arial_MSFontService,sans-serif" font-size="30.4395" x="1300.1" y="1736.02">π‘ </text><path d="M1466.8 1660.34C1474.69 1662.42 1480.75 1666.91 1484.98 1673.82 1489.21 1680.72 1491.32 1689.05 1491.32 1698.8 1491.32 1708.58 1489.22 1716.91 1485 1723.79 1480.79 1730.66 1474.72 1735.14 1466.8 1737.22L1465.83 1734.1C1472.07 1732.02 1476.71 1727.91 1479.75 1721.78 1482.79 1715.65 1484.31 1707.85 1484.31 1698.4 1484.31 1689.26 1482.8 1681.68 1479.77 1675.64 1476.75 1669.6 1472.06 1665.54 1465.71 1663.46ZM1364.35 1660.34 1365.45 1663.46C1359.12 1665.54 1354.44 1669.6 1351.4 1675.64 1348.36 1681.68 1346.84 1689.26 1346.84 1698.4 1346.84 1707.85 1348.36 1715.65 1351.4 1721.78 1354.44 1727.91 1359.08 1732.02 1365.32 1734.1L1364.35 1737.22C1356.43 1735.14 1350.37 1730.66 1346.15 1723.79 1341.94 1716.91 1339.83 1708.58 1339.83 1698.8 1339.83 1689.05 1341.95 1680.72 1346.17 1673.82 1350.4 1666.91 1356.46 1662.42 1364.35 1660.34Z" fill="#1A1AFF" fill-rule="evenodd"/><path d="M1380.15 1683.06C1381.26 1683.06 1382.2 1683.21 1382.99 1683.51 1383.53 1683.72 1384.07 1684.08 1384.61 1684.58 1385.15 1685.08 1385.63 1685.78 1386.05 1686.67 1386.46 1687.56 1386.83 1688.56 1387.14 1689.67 1387.45 1690.78 1387.79 1692.37 1388.17 1694.45 1388.82 1697.93 1389.45 1701.6 1390.06 1705.45 1390.67 1709.3 1391.19 1712.88 1391.62 1716.17 1394.24 1712.39 1396.46 1708.69 1398.28 1705.07 1400.11 1701.45 1401.42 1698.3 1402.22 1695.62 1403.01 1692.95 1403.41 1690.78 1403.41 1689.1 1403.41 1687.83 1403.14 1686.97 1402.6 1686.51 1402.06 1686.05 1401.14 1685.78 1399.84 1685.7L1400.25 1683.71 1410.91 1683.71 1412 1685.74C1409.95 1691.36 1407.17 1697.37 1403.65 1703.77 1400.2 1710.04 1396.24 1716.28 1391.78 1722.49 1387.51 1728.41 1383.96 1732.69 1381.12 1735.34 1379.15 1737.15 1377.24 1738.45 1375.41 1739.23 1373.95 1739.83 1372.39 1740.12 1370.75 1740.12 1370.18 1740.12 1369.52 1740.08 1368.78 1739.98 1368.04 1739.89 1367.46 1739.76 1367.06 1739.6L1368.8 1731.73 1372 1731.73C1372 1733.46 1372.6 1734.33 1373.79 1734.33 1375.35 1734.33 1377.18 1733.35 1379.26 1731.39 1381.34 1729.43 1383.78 1726.48 1386.59 1722.54 1385.81 1717.81 1384.74 1712.11 1383.39 1705.43 1381.96 1698.3 1381.01 1693.88 1380.55 1692.18 1379.99 1690.13 1379.39 1688.82 1378.77 1688.25 1378.39 1687.9 1377.92 1687.72 1377.35 1687.72 1376.49 1687.72 1375.68 1688.07 1374.92 1688.78 1374.16 1689.48 1373.23 1690.69 1372.12 1692.42L1369.49 1690.68C1371.35 1687.9 1373.1 1685.93 1374.72 1684.78 1376.34 1683.64 1378.15 1683.06 1380.15 1683.06Z" fill="#1A1AFF" fill-rule="evenodd"/><text fill="#000000" fill-opacity="0" font-family="Arial,Arial_MSFontService,sans-serif" font-size="57.0625" x="1367.06" y="1732.99">π‘¦</text><path d="M1436.67 1657.45 1441.41 1657.45 1441.41 1672.86 1455.92 1672.86 1455.92 1677.34 1441.41 1677.34 1441.41 1692.75 1436.67 1692.75 1436.67 1677.34 1422.17 1677.34 1422.17 1672.86 1436.67 1672.86Z" fill="#1A1AFF" fill-rule="evenodd"/><text fill="#000000" fill-opacity="0" font-family="Arial,Arial_MSFontService,sans-serif" font-size="35.3027" x="1422.17" y="1688.33">+</text><path d="M1527.36 1704.46 1577.29 1704.46 1577.29 1709.85 1527.36 1709.85ZM1527.36 1687.64 1577.29 1687.64 1577.29 1693.03 1527.36 1693.03Z" fill="#1A1AFF" fill-rule="evenodd"/><text fill="#000000" fill-opacity="0" font-family="Arial,Arial_MSFontService,sans-serif" font-size="22.209" x="1527.36" y="1707.07">=</text><path d="M1621.11 1681.6C1623.95 1681.6 1626.04 1682.32 1627.37 1683.75 1628.71 1685.18 1629.38 1687.26 1629.38 1689.99 1629.38 1691.91 1628.99 1694.41 1628.2 1697.49L1626.42 1704.3C1625.31 1708.54 1624.76 1711.63 1624.76 1713.58 1624.76 1715.98 1625.7 1717.19 1627.6 1717.19 1628.46 1717.19 1629.39 1716.86 1630.39 1716.21 1631.39 1715.56 1632.51 1714.57 1633.74 1713.23 1634.97 1711.9 1635.97 1710.42 1636.76 1708.8 1637.54 1707.18 1638.17 1705.26 1638.66 1703.04L1643.2 1682.25 1654.79 1682.25 1648.18 1710.34C1647.86 1711.71 1647.7 1713.08 1647.7 1714.43 1647.7 1715.32 1647.85 1716.01 1648.14 1716.5 1648.44 1716.98 1648.95 1717.23 1649.68 1717.23 1650.52 1717.23 1651.43 1716.85 1652.4 1716.09 1653.37 1715.33 1654.51 1714.21 1655.8 1712.73L1658.72 1715.65C1655.88 1718.48 1653.44 1720.43 1651.39 1721.5 1649.33 1722.57 1647.17 1723.1 1644.9 1723.1 1642.63 1723.1 1640.83 1722.47 1639.51 1721.22 1638.19 1719.96 1637.53 1718.31 1637.53 1716.25 1637.53 1715.58 1637.61 1714.93 1637.77 1714.31L1637.36 1713.98C1634.85 1717.09 1632.44 1719.39 1630.13 1720.87 1627.82 1722.36 1625.15 1723.1 1622.12 1723.1 1619.37 1723.1 1617.21 1722.32 1615.66 1720.75 1614.11 1719.18 1613.33 1717.05 1613.33 1714.35 1613.33 1713.48 1613.42 1712.4 1613.59 1711.11 1613.77 1709.81 1613.98 1708.66 1614.22 1707.66L1617.42 1695.02C1617.88 1693.21 1618.11 1691.63 1618.11 1690.28 1618.11 1689.22 1617.94 1688.49 1617.59 1688.09 1617.23 1687.68 1616.73 1687.48 1616.09 1687.48 1615.3 1687.48 1614.43 1687.85 1613.47 1688.59 1612.51 1689.34 1611.36 1690.46 1610.01 1691.98L1607.09 1689.06C1609.87 1686.28 1612.29 1684.34 1614.34 1683.24 1616.4 1682.15 1618.65 1681.6 1621.11 1681.6Z" fill="#1A1AFF" fill-rule="evenodd"/><text fill="#000000" fill-opacity="0" font-family="Arial,Arial_MSFontService,sans-serif" font-size="41.5" x="1607.09" y="1717.91">π’–</text><path d="M1672.46 1710 1689.22 1710 1688.31 1714.54 1678.29 1714.54C1677.73 1717.06 1677.16 1719.58 1676.58 1722.1 1676 1724.62 1675.42 1727.16 1674.84 1729.72 1674.62 1730.6 1674.47 1731.38 1674.38 1732.06 1674.3 1732.74 1674.25 1733.34 1674.25 1733.85 1674.25 1734.47 1674.37 1734.97 1674.62 1735.34 1674.86 1735.71 1675.33 1735.9 1676.01 1735.9 1676.75 1735.9 1677.56 1735.57 1678.44 1734.92 1679.32 1734.26 1680.3 1733.3 1681.37 1732.03L1683.39 1733.97C1682.38 1735.02 1681.45 1735.92 1680.61 1736.66 1679.77 1737.4 1678.96 1738.01 1678.19 1738.48 1677.42 1738.95 1676.66 1739.29 1675.92 1739.5 1675.18 1739.72 1674.42 1739.83 1673.64 1739.83 1672.87 1739.83 1672.19 1739.69 1671.57 1739.41 1670.96 1739.14 1670.43 1738.76 1669.99 1738.26 1669.55 1737.76 1669.21 1737.17 1668.96 1736.49 1668.72 1735.8 1668.6 1735.06 1668.6 1734.26 1668.6 1733.69 1668.66 1732.96 1668.79 1732.08 1668.91 1731.19 1669.09 1730.2 1669.31 1729.1 1669.54 1728.01 1669.8 1726.85 1670.11 1725.62 1670.41 1724.39 1670.73 1723.14 1671.07 1721.87 1671.41 1720.6 1671.78 1719.35 1672.16 1718.12 1672.54 1716.89 1672.91 1715.73 1673.28 1714.66 1673.28 1714.58 1673.26 1714.54 1673.23 1714.54L1670.06 1714.54C1669.18 1714.56 1668.43 1714.62 1667.81 1714.73 1667.18 1714.84 1666.6 1715.03 1666.08 1715.3 1665.55 1715.58 1665.02 1715.95 1664.5 1716.43 1663.97 1716.91 1663.36 1717.53 1662.68 1718.29L1660.54 1716.24C1661.32 1715.38 1662.02 1714.63 1662.65 1714 1663.27 1713.37 1663.86 1712.82 1664.41 1712.36 1664.95 1711.9 1665.5 1711.52 1666.03 1711.22 1666.57 1710.91 1667.15 1710.67 1667.78 1710.5 1668.4 1710.32 1669.09 1710.2 1669.84 1710.13 1670.59 1710.06 1671.47 1710.02 1672.46 1710Z" fill="#1A1AFF" fill-rule="evenodd"/><text fill="#000000" fill-opacity="0" font-family="Arial,Arial_MSFontService,sans-serif" font-size="29.8242" x="1660.54" y="1736.1">π</text><path d="M1732.64 1664.26C1735.28 1664.26 1737.57 1664.47 1739.49 1664.91L1737.91 1671.79 1734.34 1671.79C1733.96 1670.25 1733.47 1669.15 1732.86 1668.47 1732.25 1667.8 1731.35 1667.46 1730.16 1667.46 1728.62 1667.46 1727.32 1667.88 1726.25 1668.73 1725.19 1669.59 1724.27 1670.85 1723.52 1672.52 1722.76 1674.2 1722.06 1676.46 1721.41 1679.29L1720.4 1683.71 1730.81 1683.71 1729.92 1687.8 1719.47 1687.8 1711.93 1723.14C1710.68 1729.01 1708.78 1733.38 1706.21 1736.25 1703.65 1739.13 1700.42 1740.57 1696.53 1740.57 1695.39 1740.57 1694.5 1740.5 1693.85 1740.37L1694.54 1736.8C1694.81 1736.88 1695.45 1736.92 1696.45 1736.92 1697.66 1736.92 1698.7 1736.61 1699.57 1735.99 1700.43 1735.37 1701.23 1734.29 1701.98 1732.75 1702.72 1731.21 1703.4 1729.07 1704.02 1726.34L1712.74 1687.8 1705.89 1687.8 1706.5 1685.01C1708.31 1684.9 1709.61 1684.75 1710.41 1684.56 1711.2 1684.37 1711.83 1684.09 1712.27 1683.71 1712.72 1683.33 1713.1 1682.84 1713.41 1682.23 1713.72 1681.62 1714.12 1680.51 1714.6 1678.89 1716.03 1674.02 1718.24 1670.37 1721.23 1667.92 1724.21 1665.48 1728.02 1664.26 1732.64 1664.26Z" fill="#1A1AFF" fill-rule="evenodd"/><text fill="#000000" fill-opacity="0" font-family="Arial,Arial_MSFontService,sans-serif" font-size="76.313" x="1693.85" y="1731.03">π‘“</text><path d="M1773.94 1663.89 1775.03 1667.01C1768.71 1669.09 1764.03 1673.15 1760.99 1679.19 1757.95 1685.23 1756.43 1692.81 1756.43 1701.95 1756.43 1711.4 1757.95 1719.2 1760.99 1725.33 1764.03 1731.46 1768.67 1735.57 1774.91 1737.65L1773.94 1740.77C1766.02 1738.69 1759.96 1734.21 1755.74 1727.34 1751.53 1720.46 1749.42 1712.13 1749.42 1702.35 1749.42 1692.6 1751.54 1684.27 1755.76 1677.37 1759.99 1670.46 1766.05 1665.97 1773.94 1663.89Z" fill="#1A1AFF" fill-rule="evenodd"/><text fill="#000000" fill-opacity="0" font-family="Arial,Arial_MSFontService,sans-serif" font-size="76.8804" x="1749.42" y="1731.16">(</text><path d="M1789.88 1683.06C1790.98 1683.06 1791.93 1683.21 1792.71 1683.51 1793.25 1683.72 1793.79 1684.08 1794.33 1684.58 1794.87 1685.08 1795.35 1685.78 1795.77 1686.67 1796.19 1687.56 1796.56 1688.56 1796.87 1689.67 1797.18 1690.78 1797.52 1692.37 1797.9 1694.45 1798.55 1697.93 1799.18 1701.6 1799.78 1705.45 1800.39 1709.3 1800.91 1712.88 1801.34 1716.17 1803.97 1712.39 1806.19 1708.69 1808.01 1705.07 1809.84 1701.45 1811.15 1698.3 1811.94 1695.62 1812.74 1692.95 1813.14 1690.78 1813.14 1689.1 1813.14 1687.83 1812.87 1686.97 1812.33 1686.51 1811.79 1686.05 1810.87 1685.78 1809.57 1685.7L1809.98 1683.71 1820.64 1683.71 1821.73 1685.74C1819.68 1691.36 1816.89 1697.37 1813.38 1703.77 1809.92 1710.04 1805.97 1716.28 1801.51 1722.49 1797.24 1728.41 1793.69 1732.69 1790.85 1735.34 1788.88 1737.15 1786.97 1738.45 1785.13 1739.23 1783.68 1739.83 1782.12 1740.12 1780.47 1740.12 1779.91 1740.12 1779.25 1740.08 1778.51 1739.98 1777.76 1739.89 1777.19 1739.76 1776.79 1739.6L1778.53 1731.73 1781.73 1731.73C1781.73 1733.46 1782.32 1734.33 1783.51 1734.33 1785.08 1734.33 1786.9 1733.35 1788.98 1731.39 1791.06 1729.43 1793.51 1726.48 1796.32 1722.54 1795.54 1717.81 1794.47 1712.11 1793.12 1705.43 1791.69 1698.3 1790.74 1693.88 1790.28 1692.18 1789.71 1690.13 1789.12 1688.82 1788.5 1688.25 1788.12 1687.9 1787.65 1687.72 1787.08 1687.72 1786.21 1687.72 1785.4 1688.07 1784.65 1688.78 1783.89 1689.48 1782.96 1690.69 1781.85 1692.42L1779.22 1690.68C1781.08 1687.9 1782.82 1685.93 1784.45 1684.78 1786.07 1683.64 1787.88 1683.06 1789.88 1683.06Z" fill="#1A1AFF" fill-rule="evenodd"/><text fill="#000000" fill-opacity="0" font-family="Arial,Arial_MSFontService,sans-serif" font-size="57.0625" x="1776.79" y="1732.99">π‘¦</text><path d="M1846.39 1657.45 1851.14 1657.45 1851.14 1672.86 1865.64 1672.86 1865.64 1677.34 1851.14 1677.34 1851.14 1692.75 1846.39 1692.75 1846.39 1677.34 1831.89 1677.34 1831.89 1672.86 1846.39 1672.86Z" fill="#1A1AFF" fill-rule="evenodd"/><text fill="#000000" fill-opacity="0" font-family="Arial,Arial_MSFontService,sans-serif" font-size="35.3027" x="1831.89" y="1688.33">+</text><path d="M1876.53 1663.89C1884.42 1665.97 1890.48 1670.46 1894.71 1677.37 1898.94 1684.27 1901.05 1692.6 1901.05 1702.35 1901.05 1712.13 1898.94 1720.46 1894.73 1727.34 1890.51 1734.21 1884.45 1738.69 1876.53 1740.77L1875.56 1737.65C1881.8 1735.57 1886.44 1731.46 1889.48 1725.33 1892.52 1719.2 1894.04 1711.4 1894.04 1701.95 1894.04 1692.81 1892.53 1685.23 1889.5 1679.19 1886.47 1673.15 1881.79 1669.09 1875.44 1667.01Z" fill="#1A1AFF" fill-rule="evenodd"/><text fill="#000000" fill-opacity="0" font-family="Arial,Arial_MSFontService,sans-serif" font-size="76.8804" x="1875.44" y="1731.16">)</text><path d="M900.564 1305.62 1212.65 1431.06 1207.53 1443.82 895.436 1318.38ZM1211.4 1415.74 1241.98 1450.26 1196.02 1454.01Z" fill="#1A1AFF"/><path d="M748.938 1342.42 748.938 1868.03 742.063 1868.03 742.063 1342.42ZM731.75 1347 745.5 1319.5 759.25 1347ZM759.25 1863.45 745.5 1890.95 731.75 1863.45Z"/><path d="M684.5 1316.5 833.393 1316.5" stroke="#000000" stroke-width="6.875" stroke-miterlimit="8" fill="none" fill-rule="evenodd"/><path d="M684.5 1894.5 833.393 1894.5" stroke="#000000" stroke-width="6.875" stroke-miterlimit="8" fill="none" fill-rule="evenodd"/><rect x="685" y="1540" width="121" height="117" fill="#FFFFFF"/><path d="M745.229 1589.22 729.788 1629.75 757.995 1629.75ZM743.81 1580.27 749.808 1580.27 766.911 1633.64 766.911 1636.24 722.615 1636.24 722.615 1633.64Z" fill-rule="evenodd"/><text fill="#000000" fill-opacity="0" font-family="Arial,Arial_MSFontService,sans-serif" font-size="55.9683" x="722.615" y="1629.24">Ξ”</text><path d="M899.782 1657.31 1161.54 1762.52 1158.98 1768.9 897.218 1663.69ZM1161.14 1751.24 1181.52 1774.25 1150.88 1776.76Z" fill="#1A1AFF"/><path d="M899.782 1425.31 1211.94 1550.77 1209.37 1557.15 897.218 1431.69ZM1211.53 1539.5 1231.92 1562.51 1201.27 1565.01Z" fill="#1A1AFF"/><path d="M899.782 1541.31 1194.56 1659.79 1191.99 1666.17 897.218 1547.69ZM1194.15 1648.51 1214.54 1671.52 1183.89 1674.03Z" fill="#1A1AFF"/><path d="M899.782 1773.31 1079.54 1845.56 1076.98 1851.94 897.218 1779.69ZM1079.13 1834.28 1099.52 1857.3 1068.88 1859.8Z" fill="#1A1AFF"/><path d="M918.516 1311.98C918.516 1323.3 909.337 1332.48 898.015 1332.48 886.694 1332.48 877.515 1323.3 877.515 1311.98 877.515 1300.66 886.694 1291.48 898.015 1291.48 909.337 1291.48 918.516 1300.66 918.516 1311.98Z" stroke="#000000" stroke-width="5.21201" stroke-miterlimit="8" fill="#B3B3B3" fill-rule="evenodd"/></g></svg>